<?xml version="1.0" ?>
<!DOCTYPE svg  PUBLIC '-//W3C//DTD SVG 1.1//EN'  'http://www.w3.org/Graphics/SVG/1.1/DTD/svg11.dtd'>
<!-- Uploaded to: SVG Repo, www.svgrepo.com, Generator: SVG Repo Mixer Tools -->
<svg fill="#000000" width="800px" height="800px" viewBox="0 0 512 512" version="1.1" xml:space="preserve" xmlns="http://www.w3.org/2000/svg" xmlns:xlink="http://www.w3.org/1999/xlink">
<g id="_x36_18_x2C__game_x2C__gaming_x2C__start_x2C__mobile_x2C__phone">
<g>
<path d="M258.793,183.277h-54.579v39.891v0.09v62.6v0.089v2.675h1.112h0.12h12.285    v-18.534c0-2.042,1.653-3.695,3.696-3.695h20.155c2.042,0,3.696,1.653,3.696,3.695v18.534h12.315h0.089h1.112v-2.675v-0.089v-62.6    v-0.09V183.277z M266.183,231.639v50.523h6.998v-44.066L266.183,231.639z M253.896,296.01h-12.225h-0.09h-20.244h-12.196v2.583    h3.815h0.089h0.089h27.515h0.181h13.066V296.01z M196.825,282.162v-50.494l-6.998,6.428v44.066H196.825z M264.859,176.759    c0.813,0.691,1.323,1.713,1.323,2.854v42.023l13.186,12.135c0.813,0.721,1.201,1.712,1.201,2.703v14.058l7.09-2.794    c0.991-0.389,2.042-0.33,2.944,0.092l11.534,4.686c1.442,0.57,2.313,1.953,2.313,3.423l0.03,28.687    c0,0.722-0.211,1.381-0.57,1.953l-11.807,23.489c-0.9,1.802-3.123,2.554-4.926,1.621c-0.751-0.359-1.321-0.962-1.65-1.651    l-10.184-20.486h-9.161v2.764c0,2.043-1.653,3.695-3.695,3.695h-1.232v6.277c0,2.042-1.65,3.695-3.663,3.695h-13.157v28.746    c0,2.043-1.651,3.693-3.694,3.693s-3.695-1.65-3.695-3.693v-28.746h-20.304v28.746c0,2.043-1.653,3.693-3.696,3.693    s-3.694-1.65-3.694-3.693v-28.746h-3.906c-2.042,0-3.694-1.653-3.694-3.695v-6.277h-1.232c-2.042,0-3.695-1.652-3.695-3.695    v-2.764h-9.162l-10.183,20.486c-0.33,0.689-0.9,1.292-1.621,1.651c-1.832,0.933-4.055,0.181-4.956-1.621l-11.836-23.551    c-0.33-0.54-0.54-1.2-0.54-1.892v-28.687c0.03-1.47,0.902-2.853,2.342-3.423l11.536-4.686c0.9-0.422,1.952-0.48,2.943-0.092    l7.089,2.794v-14.058c0-0.991,0.421-1.982,1.202-2.703l13.186-12.135v-42.023c0-0.813,0.24-1.561,0.691-2.163    c0.089-0.181,0.21-0.359,0.33-0.511l30.038-39.589c0.21-0.331,0.48-0.632,0.813-0.872c1.591-1.231,3.904-0.959,5.166,0.632    L264.859,176.759z M254.828,175.859L230.977,145.4l-22.857,30.129L254.828,175.859z M236.715,203.313    c-1.321-1.353-3.185-2.163-5.196-2.163c-2.042,0-3.906,0.811-5.228,2.133c-1.351,1.352-2.162,3.184-2.162,5.227    c0,2.042,0.811,3.904,2.132,5.227c1.351,1.322,3.215,2.162,5.257,2.162c2.011,0,3.875-0.84,5.196-2.162s2.162-3.185,2.162-5.227    C238.877,206.496,238.037,204.635,236.715,203.313z M231.52,193.761c4.055,0,7.749,1.653,10.423,4.325    c2.672,2.674,4.324,6.368,4.324,10.424c0,4.085-1.651,7.78-4.324,10.453c-2.674,2.674-6.368,4.325-10.423,4.325    s-7.751-1.651-10.423-4.325c-2.704-2.703-4.355-6.398-4.355-10.453c0-4.056,1.651-7.75,4.325-10.424    C223.769,195.414,227.464,193.761,231.52,193.761z M217.762,238.637c-2.042,0-3.695-1.651-3.695-3.693    c0-2.014,1.653-3.664,3.695-3.664h27.483c2.044,0,3.695,1.65,3.695,3.664c0,2.042-1.651,3.693-3.695,3.693H217.762z     M289.01,255.128l-8.319,3.304v25.354l8.141,16.399l8.26-16.399v-25.383L289.01,255.128z M182.316,258.432l-8.319-3.304    l-8.081,3.274v25.383l8.259,16.399l8.141-16.399V258.432z M217.762,247.709c-2.042,0-3.695-1.651-3.695-3.693    c0-2.043,1.653-3.696,3.695-3.696h27.483c2.044,0,3.695,1.653,3.695,3.696c0,2.042-1.651,3.693-3.695,3.693H217.762z     M110.768,380.505v49.412c0,4.025,1.622,7.69,4.205,10.394l0.21,0.181c2.702,2.704,6.458,4.415,10.572,4.415h211.526    c4.115,0,7.841-1.711,10.572-4.415c2.705-2.704,4.388-6.458,4.388-10.574v-49.412H110.768z M110.768,105.752v267.395h241.473    V105.752H110.768z M337.281,48.289H125.755h-0.209l0,0h-0.181l0,0c-7.33,0.18-13.817,5.797-14.568,13.816v0.211v0.18l-0.03,0.182    v0.209v0.18v0.182v35.113h241.473V63.248v-0.182v-0.18v-0.209v-0.182l-0.032-0.18v-0.211l-0.029-0.18v-0.18l-0.029-0.211    l-0.03-0.181l-0.03-0.179c-0.991-7.029-6.638-12.195-13.668-12.857h-0.179h-0.21v-0.029h-0.182h-0.21H337.281z M238.607,405.466    c-1.802-1.802-4.326-2.942-7.087-2.942c-2.793,0-5.287,1.141-7.119,2.942c-1.802,1.834-2.944,4.326-2.944,7.119    c0,2.704,1.051,5.138,2.764,6.94l0.181,0.148c1.832,1.832,4.326,2.945,7.119,2.945c2.762,0,5.285-1.113,7.087-2.945    c1.833-1.802,2.944-4.325,2.944-7.089C241.551,409.792,240.44,407.3,238.607,405.466z M231.52,395.135    c4.774,0,9.13,1.982,12.285,5.105c3.183,3.153,5.136,7.509,5.136,12.345c0,4.807-1.953,9.162-5.106,12.316    c-3.153,3.153-7.51,5.106-12.315,5.106c-4.836,0-9.191-1.953-12.347-5.106l-0.24-0.27c-3.004-3.126-4.866-7.39-4.866-12.047    c0-4.836,1.983-9.191,5.106-12.345C222.328,397.117,226.684,395.135,231.52,395.135z M253.657,351.039    c0,2.013-1.653,3.693-3.695,3.693c-2.013,0-3.695-1.681-3.695-3.693v-22.77c0-2.043,1.683-3.693,3.695-3.693    c2.042,0,3.695,1.65,3.695,3.693V351.039z M235.213,354.281c0,2.043-1.683,3.696-3.694,3.696c-2.042,0-3.695-1.653-3.695-3.696    v-32.439c0-2.043,1.653-3.693,3.695-3.693c2.011,0,3.694,1.65,3.694,3.693V354.281z M225.962,347.765    c0,2.042-1.653,3.694-3.696,3.694s-3.694-1.652-3.694-3.694v-32.442c0-2.042,1.651-3.693,3.694-3.693s3.696,1.651,3.696,3.693    V347.765z M100.224,466.414c-2.013,0-3.693-1.653-3.693-3.695c0-2.043,1.681-3.694,3.693-3.694h234.686    c2.011,0,3.694,1.651,3.694,3.694c0,2.042-1.684,3.695-3.694,3.695H100.224z M226.713,485.999c-2.042,0-3.696-1.653-3.696-3.696    c0-2.042,1.653-3.693,3.696-3.693h180.646c2.043,0,3.694,1.651,3.694,3.693c0,2.043-1.651,3.696-3.694,3.696H226.713z     M425.832,485.999c-2.012,0-3.694-1.653-3.694-3.696c0-2.042,1.683-3.693,3.694-3.693h22.589c2.042,0,3.695,1.651,3.695,3.693    c0,2.043-1.653,3.696-3.695,3.696H425.832z M63.548,485.518c-2.013,0-3.664-1.683-3.664-3.695c0-2.043,1.651-3.693,3.664-3.693    h85.607c2.042,0,3.695,1.65,3.695,3.693c0,2.013-1.653,3.695-3.695,3.695H63.548z M275.885,33.391    c-2.043,0-3.695-1.652-3.695-3.695s1.652-3.693,3.695-3.693h78.699c6.127,0,11.715,2.521,15.74,6.576    c4.084,4.085,6.605,9.672,6.605,15.77v204.287c0,2.042-1.65,3.695-3.693,3.695c-2.042,0-3.695-1.653-3.695-3.695V48.348    c0-4.084-1.681-7.838-4.415-10.572c-2.702-2.703-6.457-4.385-10.542-4.385H275.885z M212.716,74.09    c-2.043,0-3.696-1.65-3.696-3.693s1.653-3.695,3.696-3.695h37.606c2.042,0,3.695,1.652,3.695,3.695s-1.653,3.693-3.695,3.693    H212.716z" style="fill-rule:evenodd;clip-rule:evenodd;"/>
</g>
</g>
<g id="Layer_1"/>
</svg>